<svg xmlns="http://www.w3.org/2000/svg" xmlns:xlink="http://www.w3.org/1999/xlink" viewBox="0 0 860.06 648.67"><defs><style>.cls-1{fill:url(#linear-gradient);}.cls-2{fill:url(#linear-gradient-2);}.cls-3{isolation:isolate;}.cls-4{fill:none;}</style><linearGradient id="linear-gradient" x1="421.74" y1="293.22" x2="274.57" y2="497.3" gradientTransform="matrix(1, 0, 0, -1, 0, 650)" gradientUnits="userSpaceOnUse"><stop offset="0" stop-color="#ff5a00"/><stop offset="1" stop-color="#f79e1b"/></linearGradient><linearGradient id="linear-gradient-2" x1="412.08" y1="294.67" x2="586.72" y2="565.46" gradientTransform="matrix(1, 0, 0, -1, 0, 650)" gradientUnits="userSpaceOnUse"><stop offset="0" stop-color="#ff5a00"/><stop offset="1" stop-color="#eb001b"/></linearGradient></defs><g id="Layer_2" data-name="Layer 2"><g id="Layer_1-2" data-name="Layer 1"><path class="cls-1" d="M409.56,366.53H384.34l-124.53-214,43.83,19.66A177.39,177.39,0,0,1,389.39,254l19.71,39Z"/><path d="M434.47,184.56h0a32.05,32.05,0,0,0-39.39,0h0a32,32,0,0,0-8.85,39.85l28.54,55.93,28.55-55.93A32.06,32.06,0,0,0,434.47,184.56Z"/><path class="cls-2" d="M421,366.53h25.22L603.5,87.63h0A312.87,312.87,0,0,0,452.27,232.08l-30.8,61Z"/><path d="M87.82,508.23q12,0,17.48-4.06t5.47-11.48a14.81,14.81,0,0,0-1.85-7.6,19.39,19.39,0,0,0-5.3-5.73,43.85,43.85,0,0,0-8.39-4.77q-4.94-2.2-11.3-4.33-6.36-2.29-12.27-5a41.3,41.3,0,0,1-10.42-6.8A31.37,31.37,0,0,1,54,448.72a30.89,30.89,0,0,1-2.74-13.6q0-16.61,11.48-26.05T94,399.62a74.24,74.24,0,0,1,20.39,2.56,62.53,62.53,0,0,1,14,5.56l-6.88,18a52.45,52.45,0,0,0-13.16-5.12,61.15,61.15,0,0,0-14.75-1.77q-9,0-14,3.71a12.21,12.21,0,0,0-5,10.42,13.7,13.7,0,0,0,1.68,7A17.19,17.19,0,0,0,81,445.18a41.49,41.49,0,0,0,7.24,4.24c2.76,1.3,5.8,2.54,9.09,3.71q8.66,3.18,15.46,6.45a43.5,43.5,0,0,1,11.47,7.77,30.41,30.41,0,0,1,7.16,10.59,39.4,39.4,0,0,1,2.47,14.75q0,16.6-11.74,25.69t-34.35,9.1a91.93,91.93,0,0,1-13.87-1,89.05,89.05,0,0,1-11.12-2.39,75.17,75.17,0,0,1-8.39-2.91,49.68,49.68,0,0,1-5.65-2.74l6.53-18.19a75.57,75.57,0,0,0,12.89,5.3A63.58,63.58,0,0,0,87.82,508.23Z"/><path d="M228.92,402.45h22.25V524.83H228.92V470.61H175.76v54.22H153.51V402.45h22.25v48.91h53.16Z"/><path d="M280.49,402.45h22.25V524.83H280.49Z"/><path d="M414.52,524.83q-6-10.07-13.42-21.63t-15.36-23.31q-8-11.75-16.16-22.79T354,437.24v87.59h-21.9V402.45h18.19q7.06,7.41,15.19,17.57t16.33,21.1q8.22,11,15.9,22t13.68,20.57V402.45h22.08V524.83Z"/><g class="cls-3"><path d="M535.84,524.83q-4.59-7.07-10.6-14.83t-12.62-15q-6.63-7.23-13.69-13.77A128.88,128.88,0,0,0,485,469.91v54.92H462.73V402.45H485V453q5.82-5.82,12.19-12.45t12.62-13.42q6.27-6.79,11.92-13.16T532,402.45h26.66q-5.82,6.71-12.36,13.95T532.84,431Q526,438.29,519,445.54t-13.68,13.77a165.25,165.25,0,0,1,15.1,13.16q7.68,7.5,15.1,16.07t14.21,17.84q6.79,9.27,12.45,18.45Z"/></g><g class="cls-3"><path d="M664.41,524.83q-2.48-7.25-5.13-14.3T654.14,496H602.45q-2.48,7.43-5.05,14.57t-5,14.22H569.22q6.87-19.61,13.06-36.2t12.08-31.44q5.91-14.83,11.73-28.25t12-26.49h21.25q6.18,13.07,12,26.49t11.75,28.25Q669,472,675.28,488.63t13.15,36.2ZM628.3,426.11q-4.06,9.36-9.28,22.78T608.16,478h40.27q-5.65-15.72-10.95-29.31T628.3,426.11Z"/><path d="M786.26,524.83q-6-10.07-13.42-21.63t-15.36-23.31q-8-11.75-16.16-22.79t-15.63-19.86v87.59h-21.9V402.45H722Q729,409.86,737.17,420t16.33,21.1q8.22,11,15.9,22t13.68,20.57V402.45h22.08V524.83Z"/></g><path d="M826.88,353.21v4.33h-8.46v23.24h-5V357.54H805v-4.33Z"/><path d="M836.71,353.21q1.06,1.8,1.95,3.69c.65,1.46,1.44,3,2.18,4.59s1.47,3.23,2.21,4.89,1.39,3.18,2,4.59c.6-1.41,1.29-2.94,2-4.59s1.44-3.29,2.18-4.89,1.47-3.13,2.18-4.59a40.53,40.53,0,0,1,2-3.69h4.51c.24,2,.46,4.15.68,6.46s.41,4.57.59,6.94.34,4.76.48,7.15.29,4.73.39,7h-4.88q-.16-4.81-.39-9.88c-.14-3.38-.37-6.67-.67-9.85-.3.6-.63,1.29-1,2.18s-.82,1.77-1.29,2.76-.91,2-1.37,3.08l-1.29,3.07L848,374.91c-.38.87-.68,1.59-1,2.19h-3.74c-.25-.6-.58-1.29-.94-2.22s-.77-1.81-1.21-2.8L839.73,369c-.47-1.06-.92-2.08-1.37-3.06s-.88-1.9-1.29-2.77-.75-1.57-1-2.15c-.29,3.17-.53,6.45-.67,9.85s-.27,6.67-.38,9.88h-5q.15-3.42.39-7.07c.15-2.42.31-4.85.47-7.24s.38-4.73.6-7,.44-4.33.68-6.24Z"/><rect class="cls-4" width="860" height="648.67"/></g></g></svg>