<svg width="21" height="21" viewBox="0 0 21 21" fill="none" xmlns="http://www.w3.org/2000/svg">
<mask id="mask0_7577_58699" style="mask-type:alpha" maskUnits="userSpaceOnUse" x="0" y="0" width="21" height="21">
<rect x="0.589111" y="0.0355225" width="20" height="20" fill="#D9D9D9"/>
</mask>
<g mask="url(#mask0_7577_58699)">
<path d="M17.2141 17.5355C15.4224 17.5355 13.6759 17.1362 11.9745 16.3376C10.2731 15.539 8.76619 14.4834 7.45369 13.1709C6.14119 11.8584 5.08564 10.3515 4.28703 8.65011C3.48842 6.94872 3.08911 5.20219 3.08911 3.41052C3.08911 3.16052 3.17244 2.95219 3.33911 2.78552C3.50578 2.61886 3.71411 2.53552 3.96411 2.53552H7.33911C7.53356 2.53552 7.70717 2.59802 7.85994 2.72302C8.01272 2.84802 8.103 3.00774 8.13078 3.20219L8.67244 6.11886C8.70022 6.3133 8.69675 6.49038 8.66203 6.65011C8.62731 6.80983 8.54744 6.95219 8.42244 7.07719L6.40161 9.11886C6.98494 10.1189 7.71758 11.0564 8.59953 11.9314C9.48147 12.8064 10.4502 13.5633 11.5058 14.2022L13.4641 12.2439C13.5891 12.1189 13.7523 12.0251 13.9537 11.9626C14.1551 11.9001 14.353 11.8827 14.5474 11.9105L17.4224 12.4939C17.6169 12.5355 17.7766 12.6293 17.9016 12.7751C18.0266 12.9209 18.0891 13.0911 18.0891 13.2855V16.6605C18.0891 16.9105 18.0058 17.1189 17.8391 17.2855C17.6724 17.4522 17.4641 17.5355 17.2141 17.5355ZM5.60994 7.53552L6.98494 6.16052L6.63078 4.20219H4.77661C4.84606 4.77163 4.94328 5.33413 5.06828 5.88969C5.19328 6.44524 5.37383 6.99386 5.60994 7.53552ZM13.0683 14.9939C13.6099 15.23 14.162 15.4175 14.7245 15.5564C15.287 15.6952 15.853 15.7855 16.4224 15.8272V13.9939L14.4641 13.598L13.0683 14.9939Z" fill="#333333"/>
</g>
</svg>
