<svg width="10" height="18" viewBox="0 0 10 18" fill="none" xmlns="http://www.w3.org/2000/svg">
<path d="M5 17.3333C3.52778 17.3333 2.32639 17.1007 1.39583 16.6354C0.465278 16.1701 0 15.5694 0 14.8333C0 14.3472 0.201389 13.9236 0.604167 13.5625C1.00694 13.2013 1.5625 12.9166 2.27083 12.7083L2.75 14.2916C2.51389 14.3611 2.29861 14.4479 2.10417 14.552C1.90972 14.6562 1.77778 14.75 1.70833 14.8333C1.88889 15.0555 2.30556 15.25 2.95833 15.4166C3.61111 15.5833 4.29167 15.6666 5 15.6666C5.70833 15.6666 6.39236 15.5833 7.05208 15.4166C7.71181 15.25 8.13194 15.0555 8.3125 14.8333C8.24306 14.75 8.11111 14.6562 7.91667 14.552C7.72222 14.4479 7.50694 14.3611 7.27083 14.2916L7.75 12.7083C8.45833 12.9166 9.01042 13.2013 9.40625 13.5625C9.80208 13.9236 10 14.3472 10 14.8333C10 15.5694 9.53472 16.1701 8.60417 16.6354C7.67361 17.1007 6.47222 17.3333 5 17.3333ZM5 11.7708C5.25 11.3125 5.51389 10.8923 5.79167 10.5104C6.06944 10.1284 6.34028 9.76385 6.60417 9.41663C7.11806 8.74996 7.52778 8.14927 7.83333 7.61454C8.13889 7.07982 8.29167 6.41663 8.29167 5.62496C8.29167 4.70829 7.97222 3.93051 7.33333 3.29163C6.69444 2.65274 5.91667 2.33329 5 2.33329C4.08333 2.33329 3.30556 2.65274 2.66667 3.29163C2.02778 3.93051 1.70833 4.70829 1.70833 5.62496C1.70833 6.41663 1.86111 7.07982 2.16667 7.61454C2.47222 8.14927 2.88194 8.74996 3.39583 9.41663C3.65972 9.76385 3.93056 10.1284 4.20833 10.5104C4.48611 10.8923 4.75 11.3125 5 11.7708ZM5 14.8333C4.84722 14.8333 4.70833 14.7882 4.58333 14.6979C4.45833 14.6076 4.36806 14.4861 4.3125 14.3333C3.99306 13.3472 3.59028 12.5208 3.10417 11.8541C2.61806 11.1875 2.14583 10.5486 1.6875 9.93746C1.24306 9.32635 0.857639 8.6944 0.53125 8.04163C0.204861 7.38885 0.0416667 6.58329 0.0416667 5.62496C0.0416667 4.23607 0.520833 3.06246 1.47917 2.10413C2.4375 1.14579 3.61111 0.666626 5 0.666626C6.38889 0.666626 7.5625 1.14579 8.52083 2.10413C9.47917 3.06246 9.95833 4.23607 9.95833 5.62496C9.95833 6.58329 9.79861 7.38885 9.47917 8.04163C9.15972 8.6944 8.77083 9.32635 8.3125 9.93746C7.86806 10.5486 7.39931 11.1875 6.90625 11.8541C6.41319 12.5208 6.00694 13.3472 5.6875 14.3333C5.63194 14.4861 5.54167 14.6076 5.41667 14.6979C5.29167 14.7882 5.15278 14.8333 5 14.8333ZM5 7.39579C5.48611 7.39579 5.90278 7.22218 6.25 6.87496C6.59722 6.52774 6.77083 6.11107 6.77083 5.62496C6.77083 5.13885 6.59722 4.72218 6.25 4.37496C5.90278 4.02774 5.48611 3.85413 5 3.85413C4.51389 3.85413 4.09722 4.02774 3.75 4.37496C3.40278 4.72218 3.22917 5.13885 3.22917 5.62496C3.22917 6.11107 3.40278 6.52774 3.75 6.87496C4.09722 7.22218 4.51389 7.39579 5 7.39579Z" fill="#333333"/>
</svg>
