<svg width="19" height="13" viewBox="0 0 19 13" fill="none" xmlns="http://www.w3.org/2000/svg">
<path d="M2.8007 12.7969C2.28623 12.7969 1.81495 12.6234 1.43672 12.3385L9.18494 5.15108C9.35899 4.98956 9.74208 4.98956 9.91613 5.15108L17.6644 12.3385C17.2861 12.6234 16.8148 12.7969 16.3004 12.7969H2.8007ZM0.84615 11.6718C0.6608 11.3486 0.550781 10.9739 0.550781 10.5746V3.01895C0.550781 2.56632 0.689988 2.14715 0.923363 1.79667L0.944551 1.81046L6.60475 6.32442L0.84615 11.6718ZM18.255 11.6718L12.4968 6.32447L18.157 1.81052L18.1782 1.79672C18.4116 2.1472 18.5508 2.56637 18.5508 3.019V10.5747C18.5508 10.9741 18.4408 11.3487 18.2554 11.6718L18.255 11.6718ZM7.2657 5.71335L1.56332 1.16487C1.91816 0.934214 2.34256 0.796875 2.80082 0.796875H16.3005C16.7587 0.796875 17.1831 0.934368 17.538 1.16487L11.8356 5.71335L10.5348 4.50504C9.98411 3.99428 9.11684 3.99428 8.56613 4.50504L7.2657 5.71335Z" fill="#333333"/>
</svg>
