<svg width="36" height="36" viewBox="0 0 36 36" fill="none" xmlns="http://www.w3.org/2000/svg">
<g clip-path="url(#clip0_584_5441)">
<path d="M31.5 7.5V28.5C31.5 30.1569 30.1569 31.5 28.5 31.5H22.875C22.4608 31.5 22.125 31.1642 22.125 30.75V21.75H25.635C25.9915 21.7501 26.2987 21.4993 26.37 21.15L26.91 18.45C26.9323 18.3409 26.905 18.2276 26.8354 18.1407C26.7659 18.0537 26.6613 18.0022 26.55 18H22.125V13.125C22.125 12.9179 22.2929 12.75 22.5 12.75H26.25C26.6642 12.75 27 12.4142 27 12V9.75C27 9.33579 26.6642 9 26.25 9H22.5C20.0147 9 18 11.0147 18 13.5V18H16.155C15.7408 18 15.405 18.3358 15.405 18.75V21C15.405 21.4142 15.7408 21.75 16.155 21.75H18V30.75C18 31.1642 17.6642 31.5 17.25 31.5H7.5C5.84315 31.5 4.5 30.1569 4.5 28.5V7.5C4.5 5.84315 5.84315 4.5 7.5 4.5H28.5C30.1569 4.5 31.5 5.84315 31.5 7.5Z" fill="#333333"/>
</g>
<defs>
<clipPath id="clip0_584_5441">
<rect width="36" height="36" fill="white"/>
</clipPath>
</defs>
</svg>
