<svg width="36" height="36" viewBox="0 0 36 36" fill="none" xmlns="http://www.w3.org/2000/svg">
<g clip-path="url(#clip0_584_5449)">
<path d="M24 4.5H12C7.85786 4.5 4.5 7.85786 4.5 12V24C4.5 28.1421 7.85786 31.5 12 31.5H24C28.1421 31.5 31.5 28.1421 31.5 24V12C31.5 7.85786 28.1421 4.5 24 4.5ZM28.875 24C28.8668 26.689 26.689 28.8668 24 28.875H12C9.31103 28.8668 7.13324 26.689 7.125 24V12C7.13324 9.31103 9.31103 7.13324 12 7.125H24C26.689 7.13324 28.8668 9.31103 28.875 12V24ZM26.625 10.875C26.625 11.7034 25.9534 12.375 25.125 12.375C24.2966 12.375 23.625 11.7034 23.625 10.875C23.625 10.0466 24.2966 9.375 25.125 9.375C25.9534 9.375 26.625 10.0466 26.625 10.875ZM18 11.25C14.2721 11.25 11.25 14.2721 11.25 18C11.25 21.7279 14.2721 24.75 18 24.75C21.7279 24.75 24.75 21.7279 24.75 18C24.754 16.2086 24.0441 14.4894 22.7774 13.2226C21.5106 11.9559 19.7914 11.246 18 11.25ZM18 22.125C15.7218 22.125 13.875 20.2782 13.875 18C13.875 15.7218 15.7218 13.875 18 13.875C20.2782 13.875 22.125 15.7218 22.125 18C22.125 20.2782 20.2782 22.125 18 22.125Z" fill="#333333"/>
</g>
<defs>
<clipPath id="clip0_584_5449">
<rect width="36" height="36" fill="white"/>
</clipPath>
</defs>
</svg>
