<svg width="58" height="58" viewBox="0 0 58 58" fill="none" xmlns="http://www.w3.org/2000/svg">
<g id="Group 237754">
<g id="Ellipse 165" filter="url(#filter0_d_9444_69239)">
<circle cx="25" cy="25" r="25" transform="matrix(4.9672e-08 1 1 -3.8466e-08 4 0)" fill="white" fill-opacity="0.2" shape-rendering="crispEdges"/>
<circle cx="25" cy="25" r="24.5" transform="matrix(4.9672e-08 1 1 -3.8466e-08 4 0)" stroke="#C0C0DE" shape-rendering="crispEdges"/>
</g>
<g id="Group">
<g id="Group_2">
<path id="Vector" d="M21.3509 23.8406H34.3271L28.7318 18.2454C28.3747 17.8882 28.3747 17.293 28.7318 16.9358C29.089 16.5787 29.5651 16.5787 29.9223 16.9358L37.0652 24.0787C37.4223 24.4358 37.4223 25.0311 37.0652 25.3882L29.9223 32.5311C29.5651 32.8882 28.9699 32.8882 28.6128 32.5311C28.2556 32.1739 28.2556 31.6977 28.6128 31.3406L34.208 25.6263H21.2318C20.7556 25.6263 20.2794 25.2692 20.2794 24.6739C20.5175 24.1977 20.8747 23.7215 21.3509 23.8406Z" fill="#060606"/>
</g>
</g>
</g>
<defs>
<filter id="filter0_d_9444_69239" x="0" y="0" width="58" height="58" filterUnits="userSpaceOnUse" color-interpolation-filters="sRGB">
<feFlood flood-opacity="0" result="BackgroundImageFix"/>
<feColorMatrix in="SourceAlpha" type="matrix" values="0 0 0 0 0 0 0 0 0 0 0 0 0 0 0 0 0 0 127 0" result="hardAlpha"/>
<feOffset dy="4"/>
<feGaussianBlur stdDeviation="2"/>
<feComposite in2="hardAlpha" operator="out"/>
<feColorMatrix type="matrix" values="0 0 0 0 0 0 0 0 0 0 0 0 0 0 0 0 0 0 0.15 0"/>
<feBlend mode="normal" in2="BackgroundImageFix" result="effect1_dropShadow_9444_69239"/>
<feBlend mode="normal" in="SourceGraphic" in2="effect1_dropShadow_9444_69239" result="shape"/>
</filter>
</defs>
</svg>
