<svg width="31" height="31" viewBox="0 0 31 31" fill="none" xmlns="http://www.w3.org/2000/svg">
<circle cx="15.553" cy="15.4397" r="13.9429" fill="white" stroke="#0077B5" stroke-width="1.4"/>
<path d="M20.267 20.6519V20.6515H20.2695V17.0106C20.2695 15.2295 19.8861 13.8574 17.8038 13.8574C16.8028 13.8574 16.131 14.4067 15.8568 14.9275H15.8278V14.0237H13.8535V20.6515H15.9093V17.3696C15.9093 16.5055 16.0731 15.67 17.1432 15.67C18.1976 15.67 18.2133 16.6561 18.2133 17.4251V20.6519H20.267Z" fill="#0077B5"/>
<path d="M10.5059 14.0234H12.5641V20.6512H10.5059V14.0234Z" fill="#0077B5"/>
<path d="M11.5339 10.7246C10.8758 10.7246 10.3418 11.2586 10.3418 11.9167C10.3418 12.5748 10.8758 13.12 11.5339 13.12C12.192 13.12 12.726 12.5748 12.726 11.9167C12.7256 11.2586 12.1916 10.7246 11.5339 10.7246V10.7246Z" fill="#0077B5"/>
</svg>
