<svg width="36" height="36" viewBox="0 0 36 36" fill="none" xmlns="http://www.w3.org/2000/svg">
<g clip-path="url(#clip0_584_5445)">
<path d="M28.5 4.5H7.5C5.84315 4.5 4.5 5.84315 4.5 7.5V28.5C4.5 30.1569 5.84315 31.5 7.5 31.5H28.5C30.1569 31.5 31.5 30.1569 31.5 28.5V7.5C31.5 5.84315 30.1569 4.5 28.5 4.5ZM12.75 26.25C12.75 26.6642 12.4142 27 12 27H9.75C9.33579 27 9 26.6642 9 26.25V15.75C9 15.3358 9.33579 15 9.75 15H12C12.4142 15 12.75 15.3358 12.75 15.75V26.25ZM10.875 13.5C9.63236 13.5 8.625 12.4926 8.625 11.25C8.625 10.0074 9.63236 9 10.875 9C12.1176 9 13.125 10.0074 13.125 11.25C13.125 12.4926 12.1176 13.5 10.875 13.5ZM27 26.25C27 26.6642 26.6642 27 26.25 27H24C23.5858 27 23.25 26.6642 23.25 26.25V20.625C23.25 19.3824 22.2426 18.375 21 18.375C19.7574 18.375 18.75 19.3824 18.75 20.625V26.25C18.75 26.6642 18.4142 27 18 27H15.75C15.3358 27 15 26.6642 15 26.25V15.75C15 15.3358 15.3358 15 15.75 15H18C18.4142 15 18.75 15.3358 18.75 15.75V16.65C19.6624 15.2616 21.2655 14.4889 22.92 14.64C25.2864 14.9318 27.0487 16.9662 27 19.35V26.25Z" fill="#333333"/>
</g>
<defs>
<clipPath id="clip0_584_5445">
<rect width="36" height="36" fill="white"/>
</clipPath>
</defs>
</svg>
