<svg width="64" height="52" viewBox="0 0 64 52" fill="none" xmlns="http://www.w3.org/2000/svg">
<path d="M27.4506 6.61676C27.4506 6.61676 26.5104 4.38209 23.0864 2.47721C22.7261 2.27629 22.3794 2.00247 22.1827 1.62946C21.9953 1.27595 21.9512 0.768995 22.2123 0.438373C22.3469 0.282145 22.5234 0.167712 22.721 0.108599C23.3212 -0.0974031 23.9986 0.00517464 24.5665 0.285779C25.7661 0.879202 26.5443 2.13556 27.1946 3.24781C27.4915 3.7577 27.7589 4.28416 27.9957 4.82462C28.0627 4.97806 28.5705 6.48705 28.6239 6.48705L27.4506 6.61676Z" fill="#333333"/>
<path d="M36.0827 6.64897C36.0827 6.64897 37.0153 4.38209 40.4359 2.47721C40.7971 2.27629 41.1438 2.00247 41.3396 1.62946C41.527 1.27595 41.5711 0.768995 41.3108 0.438373C41.176 0.282431 40.9995 0.168057 40.8022 0.108599C40.2019 -0.0974032 39.5246 0.00517464 38.9566 0.285779C37.757 0.879202 36.9788 2.13556 36.3286 3.24781C36.031 3.75734 35.7635 4.28384 35.5275 4.82462C35.4596 4.97806 34.9527 6.48705 34.8984 6.48705L36.0827 6.64897Z" fill="#333333"/>
<path d="M41.5565 15.9581L21.8828 15.7224L25.4069 9.61864C25.6173 9.2542 25.9199 8.95156 26.2844 8.74114C26.6488 8.53073 27.0622 8.41994 27.483 8.41992H35.8198C36.2413 8.41943 36.6554 8.53006 37.0205 8.74066C37.3856 8.95126 37.6887 9.25439 37.8993 9.61949L41.5565 15.9581Z" fill="#333333"/>
<path d="M41.5565 15.9581C34.9373 17.1899 28.3783 17.1365 21.8828 15.7224L25.4069 9.61864C25.6173 9.2542 25.9199 8.95156 26.2844 8.74114C26.6488 8.53073 27.0622 8.41994 27.483 8.41992H35.8198C36.2413 8.41943 36.6554 8.53006 37.0205 8.74066C37.3856 8.95126 37.6887 9.25439 37.8993 9.61949L41.5565 15.9581Z" fill="#FCA61F"/>
<path d="M28.4605 14.158C29.3211 14.158 30.0187 13.4641 30.0187 12.6083C30.0187 11.7524 29.3211 11.0586 28.4605 11.0586C27.6 11.0586 26.9023 11.7524 26.9023 12.6083C26.9023 13.4641 27.6 14.158 28.4605 14.158Z" fill="#333333"/>
<path d="M34.8394 14.158C35.7 14.158 36.3976 13.4641 36.3976 12.6083C36.3976 11.7524 35.7 11.0586 34.8394 11.0586C33.9789 11.0586 33.2812 11.7524 33.2812 12.6083C33.2812 13.4641 33.9789 14.158 34.8394 14.158Z" fill="#333333"/>
<path d="M40.4497 22.0332L37.8971 26.4584C37.6866 26.823 37.3839 27.1257 37.0193 27.3362C36.6547 27.5466 36.2411 27.6573 35.8201 27.6572H27.4809C27.06 27.6571 26.6466 27.5464 26.2822 27.3359C25.9178 27.1255 25.6151 26.8229 25.4047 26.4584L22.8496 22.0332C28.8601 24.501 34.7249 24.4705 40.4497 22.0332Z" fill="#FCA61F"/>
<path d="M43.6193 18.8007C44.6264 18.8126 45.2885 17.7283 44.7926 16.8509L44.7824 16.8331L44.2949 15.9854L39.2576 7.26545C39.0465 6.89968 38.7427 6.59595 38.3769 6.38478C38.0112 6.17362 37.5962 6.06247 37.1739 6.0625H26.1243C25.702 6.06247 25.2871 6.17362 24.9213 6.38478C24.5555 6.59595 24.2518 6.89968 24.0406 7.26545L19.1762 15.6895L18.5158 16.834C18.3046 17.1998 18.1934 17.6149 18.1934 18.0374C18.1934 18.4598 18.3046 18.8749 18.5158 19.2407L20.1265 22.0315L24.0397 28.8135C24.2509 29.1793 24.5546 29.483 24.9204 29.6942C25.2862 29.9053 25.7011 30.0165 26.1235 30.0164H29.606L31.5728 33.9864C31.7059 34.2543 32.0264 34.2492 32.1544 33.9763L34.0194 30.0164H37.1756C37.5979 30.0165 38.0128 29.9053 38.3786 29.6942C38.7444 29.483 39.0482 29.1793 39.2593 28.8135L42.3536 23.4515C42.4363 23.3079 42.4798 23.1451 42.4796 22.9795C42.4795 22.8138 42.4358 22.6511 42.3529 22.5076C42.2701 22.3642 42.1509 22.2451 42.0074 22.1623C41.8639 22.0794 41.7012 22.0358 41.5355 22.0358H40.4496L37.897 26.4568C37.6865 26.8213 37.3838 27.124 37.0192 27.3345C36.6546 27.5449 36.241 27.6556 35.82 27.6555H27.4807C27.0599 27.6554 26.6465 27.5447 26.2821 27.3342C25.9176 27.1238 25.615 26.8212 25.4046 26.4568L22.8495 22.0315L21.2388 19.2339L21.2345 19.2272C21.195 19.1555 21.175 19.0747 21.1765 18.9929C21.1781 18.9111 21.2011 18.8311 21.2432 18.761C21.2854 18.6909 21.3452 18.633 21.4167 18.5933C21.4882 18.5535 21.569 18.5333 21.6508 18.5346C28.4116 19.5442 35.2995 19.7392 42.2773 18.9228L43.6193 18.8007ZM22.7274 15.7319C22.6409 15.7309 22.5562 15.7072 22.4816 15.6633C22.407 15.6194 22.3453 15.5568 22.3024 15.4816C22.2596 15.4065 22.2371 15.3214 22.2373 15.2349C22.2375 15.1484 22.2603 15.0634 22.3035 14.9884L25.4046 9.6188C25.615 9.25436 25.9176 8.95172 26.2821 8.7413C26.6465 8.53089 27.0599 8.4201 27.4807 8.42008H35.8175C36.2389 8.41951 36.653 8.53001 37.0181 8.74046C37.3831 8.9509 37.6863 9.25386 37.897 9.6188L41.1142 15.191C41.1586 15.268 41.1819 15.3554 41.1817 15.4442C41.1814 15.5331 41.1577 15.6203 41.1128 15.697C41.068 15.7738 41.0036 15.8372 40.9263 15.881C40.8489 15.9248 40.7614 15.9474 40.6725 15.9464C34.7483 17.2005 28.6199 17.1273 22.7274 15.7319Z" fill="#333333"/>
<path d="M2.82186 45.6875C3.02632 44.491 3.72487 43.7108 4.79827 43.7108C5.8887 43.7108 6.57021 44.5084 6.72356 45.6875H2.82186ZM8.2229 50.1438C8.41032 49.9704 8.56366 49.7103 8.56366 49.3635C8.56366 48.7739 8.13771 48.3231 7.55842 48.3231C7.28581 48.3231 7.11543 48.3925 6.92801 48.5312C6.39984 48.93 5.80351 49.1554 5.08791 49.1554C3.92933 49.1554 3.11151 48.5312 2.85594 47.3348H7.98437C8.66589 47.3348 9.19406 46.8319 9.19406 46.069C9.19406 44.1443 7.84806 41.5953 4.79827 41.5953C2.14034 41.5953 0.283203 43.7801 0.283203 46.4331V46.4678C0.283203 49.3115 2.31072 51.2709 5.05384 51.2709C6.3828 51.2709 7.42211 50.8374 8.2229 50.1438Z" fill="#333333"/>
<path d="M20.3587 39.6186C20.3587 38.8903 19.7794 38.3008 19.0638 38.3008C18.3482 38.3008 17.769 38.8903 17.769 39.6186V42.9825C17.1556 42.2369 16.3037 41.5953 14.9236 41.5953C12.7598 41.5953 10.7663 43.2946 10.7663 46.3984V46.4331C10.7663 49.5369 12.7939 51.2362 14.9236 51.2362C16.2696 51.2362 17.1385 50.5946 17.769 49.7276V49.849C17.769 50.5773 18.3482 51.1668 19.0638 51.1668C19.7794 51.1668 20.3587 50.5773 20.3587 49.849V39.6186ZM15.5881 43.8321C16.7978 43.8321 17.803 44.8552 17.803 46.3984V46.4331C17.803 47.9763 16.7978 48.9994 15.5881 48.9994C14.3784 48.9994 13.3561 47.9763 13.3561 46.4331V46.3984C13.3561 44.8378 14.3784 43.8321 15.5881 43.8321Z" fill="#333333"/>
<path d="M22.2466 49.797C22.2466 50.5946 22.8429 51.0628 23.6608 51.0628H30.1352C30.7656 51.0628 31.2767 50.5599 31.2767 49.9184C31.2767 49.2768 30.7656 48.7566 30.1352 48.7566H25.9779L27.9203 47.2307C30.033 45.5661 31.0552 44.5604 31.0552 42.5317V42.497C31.0552 40.2255 29.4196 38.7516 26.9491 38.7516C25.1431 38.7516 24.0186 39.4105 23.0644 40.5376C22.877 40.763 22.7578 41.0751 22.7578 41.3699C22.7578 42.0462 23.2859 42.5837 23.9504 42.5837C24.3593 42.5837 24.666 42.3929 24.8364 42.2022C25.5009 41.4739 26.029 41.1445 26.7787 41.1445C27.7158 41.1445 28.3803 41.6994 28.3803 42.7224C28.3803 43.7281 27.801 44.4043 26.3187 45.6355L22.9281 48.4618C22.4851 48.826 22.2466 49.2768 22.2466 49.797Z" fill="#333333"/>
<path d="M35.1622 49.849C35.1622 50.5773 35.7415 51.1668 36.4571 51.1668C37.1727 51.1668 37.752 50.5773 37.752 49.849V40.0694C37.752 39.3412 37.1727 38.7516 36.4571 38.7516H36.423C36.0652 38.7516 35.6904 38.8383 35.1963 38.977L33.5095 39.4799C32.9813 39.6359 32.6406 40.0868 32.6406 40.6243C32.6406 41.2485 33.1688 41.7687 33.7821 41.7687C33.9184 41.7687 34.1058 41.734 34.2421 41.6994L35.1622 41.4566V49.849Z" fill="#333333"/>
<path d="M45.5191 51.2709C48.7052 51.2709 50.835 48.5138 50.835 44.9939V44.9592C50.835 41.4393 48.7053 38.7169 45.5532 38.7169C42.3842 38.7169 40.2374 41.4739 40.2374 44.9939V45.0286C40.2374 48.5485 42.333 51.2709 45.5191 51.2709ZM45.5532 48.8606C43.9687 48.8606 42.9294 47.2134 42.9294 44.9939V44.9592C42.9294 42.7397 43.9517 41.1271 45.5191 41.1271C47.0866 41.1271 48.143 42.7918 48.143 44.9939V45.0286C48.143 47.2307 47.1378 48.8606 45.5532 48.8606Z" fill="#333333"/>
<path d="M57.9649 51.2709C61.151 51.2709 63.2807 48.5138 63.2807 44.9939V44.9592C63.2807 41.4393 61.151 38.7169 57.9989 38.7169C54.8299 38.7169 52.6831 41.4739 52.6831 44.9939V45.0286C52.6831 48.5485 54.7788 51.2709 57.9649 51.2709ZM57.9989 48.8606C56.4144 48.8606 55.3751 47.2134 55.3751 44.9939V44.9592C55.3751 42.7397 56.3974 41.1271 57.9649 41.1271C59.5324 41.1271 60.5887 42.7918 60.5887 44.9939V45.0286C60.5887 47.2307 59.5835 48.8606 57.9989 48.8606Z" fill="#333333"/>
</svg>
