<svg width="21" height="19" viewBox="0 0 21 19" fill="none" xmlns="http://www.w3.org/2000/svg">
<mask id="mask0_7577_58708" style="mask-type:alpha" maskUnits="userSpaceOnUse" x="0" y="0" width="21" height="19">
<rect x="0.572754" y="0.489258" width="20" height="18" fill="#D9D9D9"/>
</mask>
<g mask="url(#mask0_7577_58708)">
<path d="M3.90641 15.4895C3.44808 15.4895 3.05572 15.3426 2.72933 15.0489C2.40294 14.7551 2.23975 14.402 2.23975 13.9895V4.9895C2.23975 4.577 2.40294 4.22388 2.72933 3.93013C3.05572 3.63638 3.44808 3.4895 3.90641 3.4895H17.2397C17.6981 3.4895 18.0904 3.63638 18.4168 3.93013C18.7432 4.22388 18.9064 4.577 18.9064 4.9895V13.9895C18.9064 14.402 18.7432 14.7551 18.4168 15.0489C18.0904 15.3426 17.6981 15.4895 17.2397 15.4895H3.90641ZM10.5731 10.2395L3.90641 6.4895V13.9895H17.2397V6.4895L10.5731 10.2395ZM10.5731 8.7395L17.2397 4.9895H3.90641L10.5731 8.7395ZM3.90641 6.4895V4.9895V13.9895V6.4895Z" fill="#333333"/>
</g>
</svg>
