<svg width="16" height="17" viewBox="0 0 16 17" fill="none" xmlns="http://www.w3.org/2000/svg">
<path d="M15.1291 13.3653L15.0394 13.1858C14.7882 12.5937 11.7022 11.6967 11.451 11.6788L11.2536 11.6967C10.8768 11.7684 10.4642 12.1093 9.65683 12.809C9.49538 12.9526 9.27999 12.9885 9.08263 12.8807C8.0241 12.2886 6.7323 11.1045 6.08636 10.3868C5.38663 9.61539 4.54337 8.34146 4.14866 7.31872C4.07694 7.12135 4.14866 6.90609 4.29221 6.76256C5.2072 5.93718 5.60192 5.54259 5.63783 5.11192C5.65573 4.86074 5.11759 1.68505 4.56127 1.38004L4.39982 1.27241C4.04102 1.03913 3.50273 0.698212 2.91066 0.823868C2.76711 0.859787 2.62356 0.913603 2.49803 0.985315C2.10344 1.23675 1.11661 1.91857 0.668071 2.79762C0.398996 3.35378 0.273353 8.39544 4.04111 12.6476C7.77299 16.8639 12.384 17.0433 13.0658 16.8998H13.0837L13.1375 16.8819C14.0705 16.541 14.86 15.6619 15.165 15.2851C15.7211 14.6213 15.3444 13.8138 15.129 13.3653L15.1291 13.3653Z" fill="#333333"/>
</svg>
