<svg width="30" height="31" viewBox="0 0 30 31" fill="none" xmlns="http://www.w3.org/2000/svg">
<circle cx="14.9085" cy="15.4397" r="13.9429" fill="white" stroke="#2AA3EF" stroke-width="1.4"/>
<path d="M20.6157 11.8227C20.1911 12.009 19.7388 12.1324 19.2671 12.1923C19.7523 11.9026 20.1226 11.4474 20.2967 10.8987C19.8444 11.1684 19.3449 11.3589 18.8126 11.4653C18.3831 11.0079 17.7708 10.7246 17.103 10.7246C15.8072 10.7246 14.764 11.7764 14.764 13.0657C14.764 13.2512 14.7797 13.4296 14.8183 13.5994C12.8725 13.5045 11.1507 12.5719 9.99409 11.1513C9.79216 11.5016 9.67372 11.9026 9.67372 12.3343C9.67372 13.1449 10.0911 13.8634 10.7133 14.2794C10.3373 14.2723 9.9684 14.1631 9.65588 13.9911C9.65588 13.9983 9.65588 14.0076 9.65588 14.0168C9.65588 15.1542 10.4672 16.0989 11.531 16.3165C11.3405 16.3686 11.1329 16.3936 10.9174 16.3936C10.7676 16.3936 10.6163 16.385 10.4743 16.3536C10.7775 17.2805 11.6381 17.9619 12.6613 17.9841C11.865 18.607 10.8539 18.9823 9.75934 18.9823C9.5674 18.9823 9.38331 18.9737 9.19922 18.9502C10.236 19.6188 11.4647 20.0005 12.7897 20.0005C17.0966 20.0005 19.4512 16.4328 19.4512 13.3404C19.4512 13.2369 19.4476 13.1371 19.4426 13.0379C19.9071 12.7082 20.2975 12.2965 20.6157 11.8227Z" fill="#2AA3EF"/>
</svg>
