<svg width="30" height="31" viewBox="0 0 30 31" fill="none" xmlns="http://www.w3.org/2000/svg">
<circle cx="14.7307" cy="15.4397" r="14.6429" fill="#FE0000"/>
<path d="M20.6671 12.2002C20.5187 11.6194 20.0814 11.1619 19.5262 11.0067C18.5197 10.7246 14.484 10.7246 14.484 10.7246C14.484 10.7246 10.4484 10.7246 9.44191 11.0067C8.88666 11.162 8.44935 11.6194 8.30092 12.2002C8.03125 13.253 8.03125 15.4496 8.03125 15.4496C8.03125 15.4496 8.03125 17.6462 8.30092 18.699C8.44935 19.2799 8.88666 19.7183 9.44191 19.8735C10.4484 20.1556 14.484 20.1556 14.484 20.1556C14.484 20.1556 18.5197 20.1556 19.5262 19.8735C20.0814 19.7183 20.5187 19.2799 20.6671 18.699C20.9368 17.6462 20.9368 15.4496 20.9368 15.4496C20.9368 15.4496 20.9368 13.253 20.6671 12.2002ZM13.1641 17.444V13.4553L16.5372 15.4497L13.1641 17.444Z" fill="white"/>
</svg>
